<?xml version="1.0" encoding="utf-8"?>
<!-- Generator: Adobe Illustrator 16.2.0, SVG Export Plug-In . SVG Version: 6.00 Build 0)  -->
<!DOCTYPE svg PUBLIC "-//W3C//DTD SVG 1.1//EN" "http://www.w3.org/Graphics/SVG/1.1/DTD/svg11.dtd">
<svg version="1.1" id="Layer_1" xmlns="http://www.w3.org/2000/svg" xmlns:xlink="http://www.w3.org/1999/xlink" x="0px" y="0px"
	 width="426.667px" height="81.333px" viewBox="0 0 426.667 81.333" enable-background="new 0 0 426.667 81.333"
	 xml:space="preserve">
<g>
	<path d="M141.904,13.381c0.672,0,1.26,0.252,1.764,0.756c0.504,0.504,0.756,1.092,0.756,1.764v48.528
		c0,0.673-0.252,1.26-0.756,1.764c-0.504,0.505-1.092,0.757-1.764,0.757c-0.72,0-1.332-0.252-1.836-0.757
		c-0.504-0.504-0.756-1.091-0.756-1.764v-18.72h-15.12v18.72c0,0.673-0.252,1.26-0.756,1.764c-0.504,0.505-1.116,0.757-1.836,0.757
		c-0.673,0-1.26-0.252-1.764-0.757c-0.504-0.504-0.756-1.091-0.756-1.764V15.901c0-0.672,0.252-1.26,0.756-1.764
		c0.504-0.504,1.091-0.756,1.764-0.756c0.72,0,1.332,0.252,1.836,0.756c0.504,0.504,0.756,1.092,0.756,1.764v24.696h15.12V15.901
		c0-0.672,0.252-1.26,0.756-1.764C140.572,13.633,141.185,13.381,141.904,13.381z"/>
	<path d="M175.457,64.717c0.144,0.673,0.023,1.285-0.36,1.836c-0.385,0.551-0.889,0.9-1.512,1.044h-0.432
		c-0.529,0-1.021-0.181-1.476-0.54c-0.457-0.359-0.732-0.803-0.828-1.332l-1.944-9.359H157.24l-1.872,9.359
		c-0.097,0.527-0.372,0.973-0.828,1.332c-0.457,0.359-0.972,0.54-1.548,0.54h-0.432c-0.625-0.144-1.116-0.493-1.476-1.044
		s-0.468-1.163-0.324-1.836l10.008-49.752c0.047-0.191,0.095-0.312,0.144-0.36v-0.072v-0.072c0.095-0.24,0.216-0.407,0.36-0.504
		v-0.144h0.072v-0.072h0.072v-0.072h0.072v-0.072h0.072c0.095-0.095,0.191-0.167,0.288-0.216c0.096-0.047,0.216-0.096,0.36-0.144
		v-0.072h0.072c0.096-0.047,0.204-0.072,0.324-0.072c0.119,0,0.227-0.023,0.324-0.072H163h0.144h0.072
		c0.096,0.048,0.204,0.072,0.324,0.072c0.119,0,0.227,0.025,0.324,0.072h0.072v0.072c0.191,0.048,0.335,0.097,0.432,0.144
		c0.096,0.048,0.191,0.121,0.288,0.216h0.072v0.072h0.072v0.072h0.072v0.072l0.072,0.144c0.047,0.097,0.108,0.18,0.18,0.252
		c0.072,0.072,0.131,0.156,0.18,0.252v0.072v0.072c0.047,0.048,0.072,0.168,0.072,0.36L175.457,64.717z M167.968,51.685L163,27.349
		l-4.824,24.336H167.968z"/>
	<path d="M192.304,67.092c-3.6,0-6.433-1.151-8.496-3.455c-0.816-0.814-1.464-1.801-1.944-2.952s-0.84-2.423-1.08-3.815
		c-0.144-0.865-0.216-1.605-0.216-2.23c0-0.623,0-1.057,0-1.299V25.621c0-2.208,0.348-4.128,1.044-5.76
		c0.695-1.631,1.595-2.976,2.7-4.032c1.104-1.056,2.351-1.836,3.744-2.34c1.392-0.504,2.783-0.756,4.176-0.756
		c0.864,0,2.052,0.169,3.564,0.504c1.512,0.336,2.963,1.128,4.356,2.376c0.959,0.817,1.883,2.016,2.772,3.6
		c0.888,1.584,1.332,3.72,1.332,6.408c0,0.72-0.252,1.332-0.756,1.836s-1.116,0.756-1.836,0.756c-0.72,0-1.332-0.252-1.836-0.756
		s-0.756-1.116-0.756-1.836c0-1.775-0.277-3.18-0.828-4.212c-0.552-1.031-1.212-1.8-1.98-2.304s-1.524-0.828-2.268-0.972
		c-0.745-0.144-1.332-0.216-1.764-0.216c-0.817,0-1.597,0.144-2.34,0.432c-0.745,0.288-1.38,0.697-1.908,1.224
		c-1.488,1.345-2.232,3.36-2.232,6.048v27.864v0.217c0,0.047,0,0.301,0,0.756c0,0.457,0.047,1.008,0.144,1.656
		c0.096,0.646,0.275,1.344,0.54,2.088c0.263,0.744,0.659,1.403,1.188,1.979c1.055,1.151,2.615,1.728,4.68,1.728
		c2.16,0,3.768-0.6,4.824-1.8c0.527-0.575,0.923-1.198,1.188-1.872c0.263-0.671,0.456-1.318,0.576-1.943s0.18-1.369,0.18-2.23
		c-0.048-0.723,0.167-1.346,0.648-1.872c0.479-0.526,1.08-0.813,1.8-0.862c0.671-0.049,1.283,0.17,1.836,0.646
		c0.551,0.479,0.852,1.059,0.9,1.729c0,0.096,0,0.457,0,1.08c0,0.625-0.097,1.416-0.288,2.375c-0.432,2.688-1.44,4.85-3.024,6.479
		C198.784,65.941,195.904,67.092,192.304,67.092z"/>
	<path d="M240.364,64.681c-0.216,0.647-0.637,1.142-1.26,1.476c-0.336,0.192-0.72,0.288-1.151,0.288
		c-0.479,0-0.926-0.118-1.332-0.36c-0.408-0.24-0.73-0.576-0.973-1.008l-12.312-24.408l-5.328,8.712v14.76
		c0,0.72-0.252,1.32-0.756,1.8s-1.113,0.72-1.836,0.72c-0.672,0-1.26-0.238-1.764-0.72c-0.504-0.479-0.756-1.08-0.756-1.8v-15.48
		v-0.072V15.829c0-0.72,0.252-1.332,0.756-1.836s1.092-0.756,1.764-0.756c0.723,0,1.332,0.252,1.836,0.756s0.756,1.116,0.756,1.836
		v23.832l15.408-25.056c0.385-0.624,0.912-1.02,1.584-1.188s1.32-0.06,1.944,0.324c0.576,0.385,0.947,0.913,1.116,1.584
		c0.167,0.673,0.061,1.321-0.324,1.944l-11.304,18.36l13.752,27.144C240.52,63.397,240.58,64.034,240.364,64.681z"/>
	<path fill="#DD4126" d="M259.335,66.95h-5.543h-3.961c-0.722,0-1.32-0.252-1.799-0.757c-0.48-0.504-0.723-1.091-0.723-1.764V15.901
		c0-0.672,0.238-1.26,0.723-1.764c0.479-0.504,1.077-0.756,1.799-0.756h3.961h5.543c1.438,0,2.854,0.252,4.248,0.756
		c1.393,0.504,2.64,1.285,3.744,2.34c1.104,1.056,2.004,2.4,2.698,4.032c0.695,1.632,1.044,3.553,1.044,5.76v27.72
		c0,2.258-0.349,4.188-1.044,5.797c-0.694,1.608-1.597,2.951-2.698,4.031c-1.104,1.08-2.354,1.872-3.744,2.376
		C262.191,66.698,260.776,66.95,259.335,66.95z M252.352,61.836h1.44h5.543c1.773,0,3.265-0.551,4.465-1.655
		c1.486-1.392,2.232-3.456,2.232-6.192v-27.72c0-2.64-0.746-4.704-2.232-6.192c-1.25-1.104-2.736-1.656-4.465-1.656h-5.543h-1.44
		V61.836L252.352,61.836z"/>
	<path fill="#DD4126" d="M302.355,62.592c0.504,0.505,0.756,1.117,0.756,1.837c0,0.673-0.252,1.26-0.756,1.764
		c-0.504,0.505-1.115,0.757-1.836,0.757h-19.08c-0.72,0-1.332-0.252-1.836-0.757c-0.504-0.504-0.756-1.091-0.756-1.764V15.901
		c0-0.672,0.252-1.26,0.756-1.764c0.504-0.504,1.116-0.756,1.836-0.756h19.08c0.721,0,1.332,0.252,1.836,0.756
		c0.504,0.504,0.756,1.092,0.756,1.764c0,0.72-0.252,1.332-0.756,1.836c-0.504,0.504-1.115,0.756-1.836,0.756h-16.561v22.104h12.457
		c0.719,0,1.317,0.252,1.799,0.756c0.479,0.504,0.721,1.116,0.721,1.836c0,0.673-0.241,1.261-0.721,1.765
		c-0.48,0.504-1.08,0.756-1.799,0.756h-12.457v16.127h16.561C301.24,61.836,301.851,62.088,302.355,62.592z"/>
	<path fill="#DD4126" d="M321.255,67.237c-3.359,0-6.191-0.959-8.496-2.88c-0.912-0.767-1.811-1.933-2.699-3.491
		c-0.889-1.56-1.332-3.684-1.332-6.373c0-0.72,0.252-1.318,0.758-1.8c0.504-0.479,1.113-0.72,1.836-0.72
		c0.67,0,1.246,0.24,1.727,0.72c0.482,0.479,0.721,1.08,0.721,1.8c0,1.584,0.23,2.881,0.688,3.889
		c0.457,1.01,1.045,1.789,1.766,2.342c0.719,0.553,1.521,0.938,2.41,1.15c0.889,0.215,1.766,0.324,2.629,0.324
		c0.48,0,1.164-0.061,2.053-0.181s1.766-0.442,2.627-0.972c0.865-0.528,1.621-1.297,2.27-2.305c0.646-1.01,0.973-2.425,0.973-4.248
		c0-1.775-0.252-3.334-0.756-4.682c-0.504-1.346-1.201-2.544-2.088-3.602c-0.889-1.055-1.908-2.025-3.061-2.916
		c-1.152-0.889-2.377-1.789-3.674-2.699c-1.15-0.814-2.314-1.679-3.49-2.592c-1.178-0.911-2.244-1.919-3.203-3.024
		c-2.258-2.639-3.41-5.688-3.457-9.144c0-0.191,0.012-0.576,0.037-1.152c0.021-0.576,0.105-1.248,0.252-2.016
		c0.432-2.448,1.391-4.488,2.879-6.12c2.16-2.255,5.062-3.384,8.713-3.384c3.695,0,6.551,1.128,8.566,3.384
		c0.721,0.817,1.297,1.753,1.729,2.808c0.432,1.056,0.695,2.208,0.793,3.456c0.096,0.864,0.131,1.596,0.107,2.196
		c-0.025,0.601-0.062,0.948-0.107,1.044c-0.145,0.625-0.311,1.177-0.504,1.656c-0.242,0.385-0.529,0.72-0.865,1.008
		s-0.84,0.385-1.512,0.288c-0.672-0.096-1.152-0.348-1.439-0.756c-0.287-0.407-0.479-0.828-0.572-1.26
		c-0.146-0.527-0.168-1.08-0.072-1.656c0.096-0.672,0.096-1.32,0-1.944c-0.096-0.527-0.24-1.116-0.432-1.764
		c-0.193-0.648-0.508-1.235-0.939-1.764c-0.961-1.152-2.545-1.728-4.752-1.728c-2.209,0-3.865,0.625-4.969,1.872
		c-0.529,0.529-0.926,1.128-1.189,1.8c-0.264,0.673-0.439,1.272-0.539,1.8c-0.145,0.673-0.188,1.321-0.145,1.944v0.216
		c0,1.201,0.189,2.281,0.574,3.24c0.385,0.961,0.926,1.848,1.621,2.664c0.695,0.817,1.535,1.62,2.52,2.412
		c0.986,0.792,2.1,1.645,3.35,2.556c1.396,0.913,2.746,1.885,4.066,2.916c1.32,1.033,2.557,2.247,3.709,3.636
		c2.592,3.168,3.889,6.938,3.889,11.306c0,2.209-0.373,4.115-1.113,5.725c-0.742,1.609-1.73,2.928-2.951,3.959
		c-1.229,1.033-2.615,1.801-4.178,2.305C324.412,66.985,322.839,67.237,321.255,67.237z"/>
	<path fill="#DD4126" d="M345.591,66.95c-0.721,0-1.322-0.252-1.801-0.757c-0.48-0.504-0.721-1.091-0.721-1.764V15.901
		c0-0.672,0.236-1.26,0.721-1.764c0.479-0.504,1.08-0.756,1.801-0.756c0.672,0,1.26,0.252,1.766,0.756
		c0.504,0.504,0.756,1.092,0.756,1.764v48.528c0,0.673-0.252,1.26-0.756,1.764C346.851,66.698,346.263,66.95,345.591,66.95z"/>
	<path fill="#DD4126" d="M370.933,67.597c-3.646,0-6.479-1.152-8.496-3.456c-1.631-1.68-2.662-3.96-3.096-6.84
		c-0.096-0.815-0.156-1.536-0.18-2.16c-0.023-0.623-0.012-1.055,0.037-1.297V25.621c0-2.208,0.348-4.128,1.043-5.76
		c0.691-1.631,1.596-2.976,2.701-4.032c1.104-1.056,2.35-1.836,3.738-2.34c1.396-0.504,2.812-0.756,4.248-0.756
		c3.072,0,5.689,0.961,7.854,2.88c0.91,0.817,1.787,2.028,2.627,3.636s1.26,3.756,1.26,6.444c0,0.673-0.252,1.26-0.756,1.764
		s-1.092,0.756-1.764,0.756c-0.725,0-1.332-0.252-1.84-0.756c-0.504-0.504-0.756-1.091-0.756-1.764c0-1.824-0.273-3.264-0.828-4.32
		c-0.553-1.056-1.188-1.848-1.904-2.376c-0.725-0.528-1.453-0.864-2.195-1.008c-0.746-0.144-1.309-0.216-1.693-0.216
		c-1.727,0-3.215,0.552-4.463,1.656c-1.486,1.393-2.23,3.456-2.23,6.192v28.44v0.072c0,0.048,0,0.3,0,0.756
		c0,0.457,0.047,1.021,0.145,1.691c0.096,0.672,0.275,1.394,0.539,2.16c0.264,0.77,0.689,1.438,1.26,2.016
		c1.061,1.152,2.645,1.729,4.752,1.729c2.26,0,3.912-0.6,4.973-1.8c0.523-0.576,0.936-1.224,1.225-1.944
		c0.287-0.72,0.49-1.392,0.611-2.016c0.119-0.624,0.18-1.368,0.18-2.232V54.42v-9.146h-5.039c-0.721,0-1.332-0.252-1.836-0.756
		s-0.756-1.116-0.756-1.836c0-0.673,0.252-1.263,0.756-1.764c0.504-0.504,1.115-0.756,1.836-0.756h10.08v14.112
		c0.047,0.19,0.059,0.603,0.035,1.226c-0.025,0.625-0.107,1.344-0.252,2.16c-0.529,2.641-1.562,4.801-3.1,6.479
		C377.486,66.445,374.582,67.597,370.933,67.597z"/>
	<path fill="#DD4126" d="M417.3,65.941l-0.07,0.072c-0.049,0-0.072,0.024-0.072,0.071h-0.07l-0.072,0.072
		c0,0.049-0.021,0.07-0.068,0.07l-0.072,0.07H416.8c0,0.05-0.023,0.072-0.072,0.072h-0.07v0.071h-0.07l-0.072,0.072
		c-0.189,0.095-0.385,0.144-0.572,0.144c-0.102,0.047-0.27,0.072-0.508,0.072h-0.068h-0.072h-0.072h-0.143
		c-0.098,0-0.17-0.025-0.217-0.072h-0.146c-0.096-0.048-0.156-0.072-0.18-0.072c-0.025,0-0.084-0.021-0.184-0.069
		c-0.049-0.05-0.098-0.072-0.145-0.072c-0.049,0-0.096-0.021-0.143-0.069l-0.072-0.072l-0.072-0.072h-0.072
		c0-0.047-0.021-0.072-0.068-0.072l-0.072-0.072l-0.072-0.069l-0.07-0.072l-0.07-0.069c-0.049-0.047-0.072-0.098-0.072-0.146
		c-0.049,0-0.072-0.021-0.072-0.072l-0.068-0.07c-0.051-0.047-0.072-0.119-0.072-0.215c-0.049-0.05-0.072-0.084-0.072-0.109
		c0-0.022-0.021-0.059-0.07-0.107l-16.127-37.152v36.216c0,0.672-0.24,1.26-0.723,1.764c-0.48,0.504-1.08,0.756-1.801,0.756
		c-0.672,0-1.26-0.252-1.764-0.756c-0.506-0.504-0.76-1.092-0.76-1.764v-48.46v-0.144v-0.072v-0.072v-0.072v-0.072v-0.072h0.072
		v-0.144v-0.072v-0.072l0.072-0.072v-0.144c0.047,0,0.072-0.024,0.072-0.072c0-0.047,0.012-0.072,0.035-0.072
		c0.021,0,0.035-0.024,0.035-0.072v-0.072h0.07v-0.072c0-0.047,0.025-0.072,0.072-0.072v-0.072l0.068-0.072l0.072-0.072
		c0-0.047,0.023-0.072,0.072-0.072c0-0.047,0.012-0.072,0.037-0.072c0.02,0,0.035-0.024,0.035-0.072c0.047,0,0.07-0.023,0.07-0.072
		h0.072l0.07-0.072l0.068-0.072c0.051,0,0.072-0.024,0.072-0.072h0.072l0.072-0.072h0.07l0.072-0.072h0.07
		c0.096-0.095,0.189-0.144,0.289-0.144c0.096,0,0.188-0.024,0.285-0.072h0.07c0.098-0.047,0.289-0.072,0.576-0.072h0.146h0.068
		c0.047,0,0.072,0.024,0.072,0.072h0.07h0.07h0.146c0.047,0.048,0.096,0.072,0.145,0.072l0.072,0.072h0.145l0.07,0.072
		c0.049,0,0.1,0.025,0.145,0.072h0.072c0,0.048,0.021,0.072,0.07,0.072l0.072,0.072h0.072v0.072h0.068
		c0,0.048,0.023,0.072,0.072,0.072c0,0.048,0.021,0.072,0.07,0.072c0.049,0.048,0.072,0.097,0.072,0.144
		c0.047,0,0.07,0.025,0.07,0.072h0.072v0.072h0.07v0.072c0,0.049,0.023,0.072,0.07,0.072v0.072l0.072,0.072
		c0,0.048,0.012,0.072,0.035,0.072s0.035,0.025,0.035,0.072l0.072,0.144l16.127,37.224V15.685c0-0.672,0.238-1.26,0.721-1.764
		c0.48-0.504,1.08-0.756,1.803-0.756c0.672,0,1.26,0.252,1.764,0.756s0.756,1.092,0.756,1.764v48.456v0.216v0.072V64.5v0.072v0.07
		l-0.07,0.07v0.072v0.146L417.787,65v0.146c-0.047,0-0.07,0.023-0.07,0.07v0.072l-0.072,0.072v0.071
		c-0.047,0-0.068,0.024-0.068,0.071v0.072h-0.072v0.07l-0.072,0.072c0,0.048-0.023,0.07-0.07,0.07c0,0.047-0.014,0.072-0.035,0.072
		C417.308,65.866,417.3,65.894,417.3,65.941z"/>
</g>
<g>
	<path fill="#DD4126" d="M24.44,63.56c-0.72,0-1.321-0.239-1.8-0.72L5.721,45.993C5.24,45.56,5,44.959,5,44.191
		c0-0.72,0.24-1.296,0.721-1.729l17.063-17.132c0.527-0.479,1.127-0.72,1.8-0.72c0.672,0,1.271,0.241,1.801,0.72
		c0.479,0.529,0.72,1.128,0.72,1.8c0,0.673-0.241,1.272-0.72,1.8L11.048,44.191l15.12,15.05c0.528,0.527,0.792,1.127,0.792,1.799
		c0,0.674-0.24,1.272-0.72,1.801C25.76,63.32,25.16,63.56,24.44,63.56z"/>
	<path fill="#DD4126" d="M79.375,64.279c-0.72,0-1.32-0.239-1.8-0.72c-0.48-0.527-0.72-1.128-0.72-1.801
		c0-0.672,0.263-1.271,0.792-1.801l15.119-15.047L77.431,29.647c-0.479-0.527-0.72-1.127-0.72-1.8c0-0.672,0.24-1.271,0.72-1.8
		c0.528-0.479,1.128-0.72,1.801-0.72c0.671,0,1.271,0.241,1.8,0.72l17.063,17.136c0.479,0.433,0.721,1.008,0.721,1.729
		c0,0.768-0.241,1.364-0.721,1.799L81.175,63.56C80.694,64.04,80.095,64.279,79.375,64.279z"/>
</g>
<path fill="#010101" d="M42.357,52.815c-11.771,2.368,0.806,18.003-15.383,21.26c-0.864,0.069-1.025,0.477-0.046,0.768
	c1.941,0.578,7.296,1.047,12.88-0.076c9.705-1.953,12.523-11.288,11.34-17.176C50.535,54.547,48.077,51.665,42.357,52.815z"/>
<path fill="#010101" d="M71.669,4.607C62.14,12.33,53.333,28.542,50.144,34.37c-2.459,4.494-6.092,16.341-1.171,17.986
	c2.175,0.729,8.616-2.764,14.239-11.597c5.621-8.839,11.785-31.412,11.06-35.416C73.974,3.699,72.784,3.704,71.669,4.607z
	 M48.991,49.361c-0.429-3.786,1.16-8.065,2.697-10.904c1.883-0.007,4.317,0.955,6.501,3.284
	C57.47,43.85,53.929,47.708,48.991,49.361z"/>
</svg>
